<svg width="332" height="120" viewBox="0 0 332 120" fill="none" xmlns="http://www.w3.org/2000/svg">
<path fill-rule="evenodd" clip-rule="evenodd" d="M297.464 119.834L296.813 119.964L294.988 118.145V117.105L296.031 116.065L296.356 114.766L297.855 111.647L297.985 110.737L296.291 110.607L295.509 109.828V108.788L296.813 107.489H299.419L300.201 106.709V105.669L301.765 104.11L301.895 103.46L303.589 103.33L304.371 104.11V105.669L305.153 106.449L305.675 105.929L307.499 105.669L309.063 105.217L311.669 105.279L312.582 105.539L312.712 106.709L309.324 110.088L307.108 111.257L307.238 113.206L307.499 114.506L308.02 115.026L306.717 116.325H305.675L304.632 115.286H304.111L303.068 114.246H302.026L300.983 115.286H300.462L297.594 118.145L298.116 118.664L297.594 119.184L297.464 119.834ZM302.286 110.088V109.568H301.765V110.088H302.286ZM303.198 110.477L303.329 109.828L303.068 109.568L302.286 110.348L302.547 110.607L303.198 110.477Z" fill="black"/>
<path fill-rule="evenodd" clip-rule="evenodd" d="M31.2126 103.46H22.3505L20.7867 103.2L13.2279 102.81L12.7066 102.291L12.1853 102.81L11.4033 102.68L3.84455 102.81L3.32326 102.291L3.06261 102.55L2.93229 103.2L2.02002 103.528L0 103.72V100.861L1.75937 100.211L2.28067 99.6916L2.80196 100.211L20.7867 100.601L23.3931 100.929H30.17L38.9017 99.7592L39.032 100.991L37.7288 102.291L31.2126 103.46Z" fill="black"/>
<path fill-rule="evenodd" clip-rule="evenodd" d="M324.441 87.2163L318.968 87.0864L318.186 87.2163L314.797 90.5951V91.1149L313.494 92.4144L312.191 91.1149L312.451 89.8154L313.559 86.6965L313.624 85.7869L310.106 85.8545L309.193 85.527L309.063 84.8772L308.542 84.3574L311.93 80.9787L313.494 80.4589L314.537 79.4193H315.579L316.361 78.6396L316.622 77.3401L317.664 74.7411L318.186 73.7015L318.446 72.9218L319.228 72.1421H320.792L321.574 72.9218L321.77 73.7015L322.095 75.5208L322.356 75.7807L322.877 75.2609L323.659 75.001L327.308 73.4416L329.394 72.4696L331.218 72.1421L332 72.9218L331.348 74.6111L329.524 75.3908L329.394 76.0406L324.181 81.2386L324.441 82.5381L325.744 85.9168L324.441 87.2163ZM320.531 81.2386V80.7188L319.75 79.9391L319.228 80.4589H318.707L317.925 81.2386L317.599 82.5381L317.795 83.4478L320.531 81.2386ZM324.181 78.3797V77.8599H323.659V78.3797H324.181ZM323.138 78.8995V78.3797H322.617V78.8995H323.138Z" fill="black"/>
<path fill-rule="evenodd" clip-rule="evenodd" d="M298.898 79.9391H297.855L297.073 79.1594V78.6396L296.813 78.3797L296.291 78.8995H295.249L294.467 78.1198L294.988 77.6V76.5604L296.552 75.001V74.4812L297.594 73.4416L297.073 72.9218V72.402L294.988 70.3228V69.2832L295.77 68.5035L296.552 68.2436L299.158 67.204L300.462 66.9441L301.244 66.1644V65.6446L303.068 63.8253L304.762 63.9552L305.544 65.7745H306.457L311.148 65.0624L313.233 65.1248L315.188 65.5146L315.319 66.6842L312.973 69.0233L309.584 71.3624L308.802 71.6223L308.02 72.402L308.346 73.7015L309.324 75.7807L309.584 76.5604L310.106 77.0802L309.584 77.6V78.1198L309.324 78.3797L308.802 77.8599L308.281 78.3797L307.76 77.8599L304.893 77.0802L302.026 76.8203L300.462 78.3797L299.81 78.5097L299.68 79.1594L298.898 79.9391ZM310.627 67.9837V67.4639H310.106V67.9837H310.627ZM306.717 70.5827L307.76 69.5431H308.281L309.584 68.2436L309.324 67.9837L306.196 68.5035L305.935 68.7634L306.457 69.2832V70.3228L306.717 70.5827ZM303.068 73.1817L304.371 71.8822L303.85 71.3624L303.329 69.2832L303.068 69.0233L301.765 70.3228L301.504 71.6223L301.374 73.0517L303.068 73.1817ZM299.94 75.7807L300.201 75.2609H299.419L299.158 75.7807H299.94ZM299.158 76.8203V76.3005H298.637V76.8203H299.158Z" fill="black"/>
<path fill-rule="evenodd" clip-rule="evenodd" d="M267.359 75.5208L266.056 75.7807L265.274 75.001V74.4812L266.317 73.4416L264.232 71.3624L264.297 68.1136L267.881 66.1644L268.663 65.9045L269.445 65.1248V64.605L270.748 63.3055H271.269L272.312 64.3451L279.089 63.8253L279.87 64.605V66.1644L279.089 66.9441L276.352 68.6334L276.221 69.803L277.264 70.8426V72.402L275.961 73.7015L270.226 74.2213L269.184 75.2609L267.359 75.5208ZM271.399 69.4131V68.1136H270.617V69.4131H271.399ZM267.359 70.0629V69.5431H266.838V70.0629H267.359ZM270.487 70.0629V69.5431H269.966V70.0629H270.487ZM273.876 71.6223L274.136 71.1025H273.354L273.094 71.6223H273.876Z" fill="black"/>
<path fill-rule="evenodd" clip-rule="evenodd" d="M288.211 110.285L280.652 110.607L280.131 110.088L279.61 110.607L256.673 111.647L254.066 114.246H251.981L250.939 113.206L250.157 113.404L248.593 113.596L248.267 101.251L249.114 96.3129L249.635 95.7931L249.114 95.2733L249.635 86.9564L248.071 85.397L248.593 84.8772L248.071 84.3574L250.157 82.2782L250.026 81.1087L248.071 80.6564L247.159 80.329L247.029 78.6396L247.811 77.8599L250.548 77.7975L250.808 76.9503L252.502 76.8203L253.545 77.8599L254.066 77.3401L271.53 76.3681L273.876 75.7807L274.918 76.8203H275.961L276.482 76.3005L277.003 76.8203L277.525 76.3005L285.605 75.001L287.169 74.4812L288.993 74.2213L290.036 75.2609L290.557 74.7411L292.773 75.3908L292.903 76.5604L291.6 77.8599L290.883 77.9899L290.818 80.199L291.339 80.7188L290.818 81.2386L290.948 91.2448L291.6 91.3748L293.685 89.2955L294.988 89.0356L297.594 88.0636L301.765 86.9564L304.371 86.5042L309.975 86.1767L310.106 87.996L309.324 88.7757H308.802L308.02 89.5555V90.0753L303.329 94.7535L303.85 95.2733V95.7931L305.414 97.3525L305.284 99.0418L304.371 99.4317H303.329L302.286 99.0418L298.767 98.7196L298.637 99.4317L297.334 100.731L296.682 100.861L296.552 101.511L294.727 103.33L293.033 103.2L293.229 101.251L293.424 100.471L292.382 99.4317V98.3921L293.424 97.3525V96.8327L293.945 96.3129L293.685 96.053L291.6 95.5332L291.078 95.0134L290.296 95.7931L290.818 101.511L291.339 102.031L290.818 102.55L291.339 108.788L290.557 109.568L288.211 110.285ZM252.763 90.855V89.5555L252.242 89.2955V90.5951L252.763 90.855ZM284.562 78.3797V77.8599H284.041V78.3797H284.562ZM288.732 82.0183V81.4985H288.211V82.0183H288.732ZM288.602 85.0072V84.2275L287.951 84.0975L287.169 84.8772L287.429 85.1371L288.602 85.0072ZM288.732 89.8154V89.2955H288.211V89.8154H288.732ZM302.547 91.8946L304.893 89.5555L304.632 89.2955L302.807 89.623L301.895 89.9453L302.026 91.1149L302.547 91.8946ZM288.211 90.3352V89.8154H287.69V90.3352H288.211ZM295.379 93.324L295.509 92.6743L296.552 91.6347L296.291 91.3748L294.727 91.8946L293.424 93.1941L293.685 93.454L295.379 93.324ZM299.419 95.0134L300.201 94.2337L299.68 93.7139L299.549 93.0641H298.767L298.376 93.9738L298.246 94.8834L299.419 95.0134ZM287.169 96.3129L288.081 95.923L288.211 94.2337L287.951 93.9738L287.169 94.7535V95.2733L286.126 96.3129L286.387 96.5728L287.169 96.3129ZM251.721 98.652V98.1322H251.199V98.652H251.721ZM286.126 97.0926V96.5728H285.605V97.0926H286.126ZM271.79 105.409L273.094 104.11V103.59L274.136 102.55L273.876 102.291H273.354L272.051 103.59L271.79 104.63V105.409ZM265.795 103.85V103.33H265.274V103.85H265.795ZM265.274 104.37V103.85H264.753V104.37H265.274ZM279.089 108.008L279.349 107.749L278.828 107.229L279.87 105.669L280.783 103.98L278.828 105.15L276.873 106.579L276.743 107.749L276.221 108.268L276.482 108.528L279.089 108.008ZM263.58 109.438L263.71 108.268L265.274 106.709L264.753 104.63L264.492 104.37L263.71 105.15V105.669L262.928 106.449L262.277 106.579L262.146 107.229L260.583 108.788L260.843 109.048L263.58 109.438ZM270.748 108.528L271.008 108.268L270.487 107.749V106.709L271.53 105.669L271.269 105.409H270.226L266.838 108.788L267.099 109.048L270.748 108.528ZM286.908 108.528L287.429 108.008L288.602 107.878V106.579L287.82 106.319L287.69 105.669L287.429 105.409L286.908 105.929H286.387L285.605 106.709L285.735 107.878L286.908 108.528ZM272.833 109.048L273.354 108.528H274.397L274.657 108.268L274.136 107.749V106.709L273.876 106.449L272.312 108.008L271.66 108.138L271.53 108.788L271.79 109.048L272.312 108.528L272.833 109.048ZM281.956 108.398L284.301 108.008L284.562 107.489H284.301L282.216 106.449L280.913 107.749L281.043 108.398H281.956ZM297.073 97.6124V97.0926H296.552V97.6124H297.073ZM288.732 100.211V99.6916H288.211V100.211H288.732ZM288.732 101.251V100.731H288.211V101.251H288.732ZM288.211 101.771V101.251H287.69V101.771H288.211Z" fill="black"/>
<path fill-rule="evenodd" clip-rule="evenodd" d="M155.02 115.286L153.717 115.026L152.935 115.286L152.414 114.766L151.892 115.286L147.722 115.805L147.201 115.286L146.679 115.805L146.158 115.286L144.464 115.156L144.073 114.246L143.943 113.206L145.898 99.9515L145.376 99.4317L145.898 98.9119L145.376 98.3921L146.093 95.5332L146.419 93.1941L145.376 92.1545L145.507 90.4651L147.722 89.8154L149.286 91.3748L162.058 90.4651L164.143 90.0753L165.707 89.5555L167.792 89.1032L171.18 88.7757L171.702 89.2955L172.223 88.7757L173.005 89.5555L173.526 92.6743L174.047 93.1941L173.526 93.7139L174.047 94.2337L173.526 94.7535L173.722 95.5332L174.047 97.3525L173.526 97.8723L174.047 98.3921L173.526 98.9119L173.005 100.991L173.526 101.511L173.005 102.031L172.223 108.528L171.441 112.947L170.659 113.726H169.095L168.574 114.246L168.053 113.726L167.531 114.246L167.01 113.726L166.489 114.246L155.542 114.766L155.02 115.286ZM161.536 111.585L168.704 111.127L170.659 98.652L170.398 93.7139L170.92 93.1941L169.616 91.8946L163.622 93.1317L158.669 93.454L158.148 93.9738L157.627 93.454L149.09 94.0413L148.765 100.211L149.025 102.031L148.504 102.55L149.025 103.07L148.504 103.59L147.983 107.749L148.504 108.268L147.983 108.788L148.048 112.104L159.712 111.647L160.233 111.127L160.754 111.647L161.536 111.585Z" fill="black"/>
<path fill-rule="evenodd" clip-rule="evenodd" d="M125.046 114.116L124.264 114.246L123.742 113.726L123.221 114.246L122.7 113.726L115.141 114.636L114.099 114.574L112.013 113.986L109.668 113.726L109.146 113.206L108.625 113.726L108.104 113.206L107.582 113.726L105.497 113.206L104.976 113.726L104.455 113.206L103.933 113.726L103.412 113.206L102.891 113.726L100.545 113.986L98.4597 114.574L97.4171 114.963L96.1138 115.286L95.3319 114.506V112.427L96.3745 111.387L96.8958 107.749L97.4171 107.229L96.8958 106.709L97.4171 99.9515L96.8958 99.4317L97.4171 98.9119L98.4597 91.6347L98.981 91.1149L98.4597 90.5951L98.981 90.0753L99.4371 86.6965L99.2416 73.1817L98.981 71.8822L100.024 70.8426L100.154 70.1928L101.327 70.0629L102.369 71.1025L121.397 70.7802L125.046 69.9329L128.434 69.5431L128.955 69.0233L129.477 69.5431H129.998L130.78 70.3228L130.063 73.1817L129.737 75.5208L130.259 76.0406L129.737 76.5604L130.259 80.7188L130.78 81.2386L130.259 81.7584L129.998 83.0579L130.259 87.996L129.737 88.5158L130.259 89.0356V89.5555L129.737 90.0753L130.259 90.5951L130.65 94.4936L130.584 97.6124L130.78 98.3921L130.259 98.9119L130.78 99.4317L130.389 112.167L130.259 112.947L129.477 113.726L125.046 114.116ZM126.088 111.387L128.173 110.997L128.63 102.81L128.434 101.771V100.731L128.63 99.6916L127.652 86.9564L128.173 86.4366L127.652 85.9168V84.8772L127.131 84.3574L127.652 83.8376L127.131 76.5604L127.652 76.0406L127.131 75.5208L127.392 74.2213L127.522 72.272L125.567 72.402L124.003 72.9218L121.918 73.3116L102.239 74.2213L101.783 75.7807L101.327 93.9738L100.024 100.471L100.545 100.991L100.024 101.511L100.219 102.291L100.415 103.85L99.6326 109.048L99.3068 110.088L99.1113 111.517L99.7629 111.647L100.284 111.127L100.805 111.647L101.327 111.127H103.933L104.455 110.607L104.976 111.127L105.497 110.607H106.018L106.54 111.127L107.061 110.607L107.843 110.805H110.449L112.535 111.257L126.088 111.387Z" fill="black"/>
<path fill-rule="evenodd" clip-rule="evenodd" d="M57.2773 109.895L54.8012 109.438L54.5405 108.528V105.409L55.518 102.81L55.7134 102.031L56.756 100.991V98.9119L57.7986 97.8723L58.0593 97.0926L62.1645 89.2955L63.2071 86.6965L63.5329 85.397L65.0968 83.8376L65.3574 83.0579L65.8135 82.0183L66.1393 80.199L67.4426 78.8995H67.9639L68.4852 78.3797L69.7884 79.6792V82.798L73.4375 86.4366L73.6981 87.2163L78.6504 93.7139L80.475 97.0926L80.7356 97.8723L81.7782 98.9119L82.2995 100.991L83.8634 102.55V103.59L85.1666 104.89L85.8183 105.02L86.4699 107.229L85.1666 108.528L64.5755 108.788L57.2773 109.895ZM60.9264 105.737L80.475 104.89L80.7356 104.63L80.2143 104.11L77.3472 99.1718L76.8911 98.1322L76.5653 96.8327L75.0014 95.2733L74.3498 93.0641L73.6981 92.9342L72.9162 92.1545V91.6347L70.831 89.5555L71.3523 89.0356L70.5704 88.2559L69.9187 88.126L68.7458 85.9168L67.9639 85.1371L67.1819 85.9168L66.9213 86.6965L65.3574 89.8154L63.7935 93.454L61.7083 97.0926L60.2096 100.211L59.8838 102.031L58.8412 103.07L58.3199 105.15L57.7986 105.669L58.0593 105.929L60.9264 105.737Z" fill="black"/>
<path fill-rule="evenodd" clip-rule="evenodd" d="M320.792 45.1124L318.968 46.9317L319.489 47.4515L320.01 50.5703L319.228 51.35L316.882 50.7003L314.015 50.3104L313.494 49.7906L312.712 50.5703V51.0901L311.93 51.8698L310.236 51.7399L310.106 50.5703L309.845 50.3104L309.324 50.8302L307.76 51.35L307.238 51.8698L306.457 51.0901V50.0505L308.281 48.2312L308.933 48.1012L309.584 46.9317L309.975 45.7621L308.802 45.6322L308.02 44.8525V43.8129L308.802 43.0332L310.627 42.7109L311.409 42.5134L312.712 41.2139L313.755 39.1347L314.537 38.355H315.579L316.361 39.1347L316.491 39.7844L317.925 39.6545L320.01 39.0723L321.053 38.6824L326.787 37.123L329.133 36.7956L330.436 38.0951L329.133 39.3946L328.09 39.9144L321.835 44.5926L320.792 45.1124ZM320.792 42.5134L321.574 41.7337L321.313 41.4738L317.013 42.6433L316.882 43.8129L317.664 44.5926L318.186 44.0728L320.792 42.5134ZM313.494 47.1916L314.015 46.6718H314.537L315.319 45.8921L314.797 45.3723L314.667 43.6829H313.885L313.233 45.3723L312.712 45.8921L313.233 46.6718L313.494 47.1916ZM322.356 41.4738L322.617 40.954H321.835L321.574 41.4738H322.356Z" fill="black"/>
<path fill-rule="evenodd" clip-rule="evenodd" d="M283.78 62.7856L282.998 62.0059L283.52 61.4861L282.998 60.9663L283.063 58.7572L283.91 58.4973V57.7176L282.738 57.5876L280.913 55.7683L280.718 54.9886L280.392 53.1693L283.78 49.7906L284.562 49.5307L285.605 49.0785L286.908 48.751L287.69 47.9713L288.211 44.3327L289.514 43.0332L290.036 43.553L290.687 43.6829L291.339 46.4119L292.121 47.1916L292.642 46.6718L296.552 45.8921L298.898 45.6322L300.201 46.9317V47.9713L299.158 49.0109L299.028 49.6606L297.855 50.3104L294.467 52.6495L293.685 52.9094L293.424 53.1693L293.945 53.6891L294.467 55.7683L296.552 57.8475L296.422 59.0171L295.509 59.277L291.86 59.3446L288.732 58.3673L287.429 58.1074L286.647 58.8871L286.452 59.6668L286.126 61.4861L285.344 62.2658L283.78 62.7856ZM284.953 54.8587L285.344 53.949L285.865 52.9094L286.126 52.1297L285.865 51.8698L285.344 52.3896H284.823L283.52 53.6891V54.2089L284.301 54.9886L284.953 54.8587ZM294.206 49.7906L294.467 49.2708H293.685L293.424 49.7906H294.206ZM292.642 50.8302L293.424 50.0505L293.163 49.7906L292.512 50.1805L292.642 50.8302ZM288.993 53.4292L290.296 52.1297L289.775 51.6099V51.0901L289.254 50.8302V51.0901L288.928 52.6495L288.993 53.4292ZM288.732 53.949V53.4292H288.211V53.949H288.732ZM291.209 55.8983L291.339 55.2485L291.078 54.9886L290.557 55.5084H290.036L289.775 56.0282L291.209 55.8983ZM291.86 56.548V56.0282H291.339V56.548H291.86Z" fill="black"/>
<path fill-rule="evenodd" clip-rule="evenodd" d="M258.237 67.4639L257.194 66.4243L255.37 66.102L254.327 65.6446L253.415 65.5146L252.242 69.2832L250.939 70.5827L250.417 70.0629L249.896 70.5827L249.114 69.803L248.593 65.1248L251.199 62.5257L250.939 62.2658L246.768 62.7856L245.986 62.0059L246.508 59.9267L248.332 58.1074L252.242 55.2485L253.284 54.7287L254.197 54.3389L254.327 53.6891L255.37 52.6495L254.848 52.1297L255.37 51.6099L255.5 50.9602L257.194 50.8302L257.976 51.6099L257.455 52.1297L257.585 52.847L262.668 52.3896L262.407 51.8698H261.886L261.104 51.0901V50.5703L260.583 50.0505L261.104 49.5307L261.234 48.8809L265.014 46.152L266.252 45.5022L266.708 43.0332L268.402 38.6149L269.184 37.8352H269.705L270.226 37.3154L270.748 37.8352H271.269L272.051 38.6149L272.116 40.824L273.615 40.6317L279.349 38.0951L280.131 37.8352L281.434 39.1347L280.783 40.824L280.131 40.954L279.349 41.7337L274.657 47.4515L273.615 48.4911L274.136 49.0109L274.788 51.7399L275.439 51.8698L276.221 52.6495L275.57 54.4064L273.354 54.4688L272.312 53.4292L271.79 53.949L269.966 53.6891L268.402 53.7567L267.49 54.079L267.164 54.9886V57.0678L267.359 57.8475L266.056 59.147L264.883 59.0171L264.232 56.2881L264.753 55.7683L264.492 55.5084H263.971L263.45 54.9886L260.061 58.3673V58.8871L259.54 59.4069L260.061 59.9267L260.778 62.2658L261.104 64.605L262.146 65.6446V66.1644L261.364 66.9441L258.237 67.4639ZM252.763 58.1074V57.5876H252.242V58.1074H252.763ZM251.981 60.1866L252.242 59.9267V58.3673L251.981 58.1074L250.678 59.4069L250.939 59.6668L251.981 60.1866ZM273.354 45.1124L274.136 44.3327L273.876 44.0728H273.354L272.572 44.8525L272.833 45.1124H273.354ZM268.141 49.7906L269.705 48.2312H270.226L270.487 47.9713L269.966 47.4515V46.9317L269.705 46.6718L268.402 47.9713L268.141 49.0109V49.7906ZM263.71 52.9094V52.3896H263.189V52.9094H263.71ZM259.54 56.0282V55.5084H259.019V56.0282H259.54ZM255.63 59.147L256.933 57.8475L256.412 57.3277V56.2881L256.152 56.0282L255.37 56.8079L255.174 57.5876L254.979 59.0171L255.63 59.147ZM258.367 64.2151L258.237 62.2658L257.976 60.9663L257.715 60.7064L257.194 61.2262L255.63 61.746L254.848 62.5257L256.152 63.8253L258.367 64.2151Z" fill="black"/>
<path fill-rule="evenodd" clip-rule="evenodd" d="M229.044 109.568H228.002L227.22 108.788V108.268L226.438 107.489L224.874 106.969L223.049 105.15L222.267 103.85L216.794 97.3525L216.012 96.5728L213.666 95.3408L212.363 95.0134L210.538 93.1941V92.6743L208.714 90.855L205.847 93.7139V94.2337L205.065 95.0134L203.37 95.6631L202.197 97.8723L197.245 102.81H196.724L195.942 103.59L195.681 104.37L194.378 106.709L192.553 108.528L192.032 108.008L191.381 107.878L191.511 106.449L191.772 105.15L193.335 103.59V102.55L195.681 100.211H196.203L196.984 99.4317V98.9119L197.766 98.1322H198.288L200.112 96.3129L200.634 94.7535L202.458 92.9342H202.979L204.283 91.6347V91.1149L205.065 90.3352H205.586L206.889 89.0356L205.325 86.4366L204.022 85.1371H202.979L200.894 83.0579H200.373L199.852 82.5381L198.548 83.8376L198.353 84.6173L198.027 86.4366L198.548 86.9564L198.027 87.4762L197.701 88.7757L197.31 89.8154L196.984 91.1149L195.942 92.1545V92.6743L196.463 93.1941L195.421 94.2337L195.095 95.5332L194.639 96.5728L193.335 98.9119L192.293 99.9515L191.967 101.251L191.576 102.291L190.99 104.37L190.729 106.189L189.165 107.749L189.686 108.268L189.426 108.528L188.644 108.788H187.601L186.819 108.528L186.037 107.749V107.229L188.122 105.15L188.644 102.031L189.686 100.991L190.012 99.6916L190.99 97.6124L192.488 95.0134L193.075 93.454L193.661 91.3748L195.03 87.2163L195.942 82.798L197.506 81.2386L196.984 80.7188L197.506 80.199L196.984 79.6792L195.942 77.6L195.16 76.8203H194.639L193.857 76.0406L191.25 71.3624L190.208 70.3228V69.2832L188.644 67.7238L188.383 66.9441L185.255 60.1866L184.669 58.1074L184.213 57.0678L183.952 56.2881L184.734 55.5084L208.714 54.4688L210.017 53.1693V52.1297L211.581 50.5703V49.0109L212.623 47.9713L213.47 45.1124L213.927 44.0728L214.187 43.2931L215.23 42.2535V41.2139L216.272 40.1743L216.598 37.8352L217.315 34.9762L218.618 33.6767H220.182L220.964 34.4564L220.443 34.9762L221.355 46.152L221.225 48.2312L220.769 50.3104L220.508 54.4064L224.092 54.7287L226.698 55.2485H230.347L236.342 54.4688L236.864 53.949L237.385 54.4688L237.906 53.949L238.427 54.4688L241.295 53.6891L244.162 53.4292L244.944 54.2089L244.618 56.0282L244.422 56.8079L243.64 57.5876L241.816 58.8871L238.688 61.4861L236.733 62.9156L236.342 63.8253L228.784 72.402L227.48 73.7015H226.959L224.613 76.0406L224.483 76.6904L223.831 76.8203L223.049 77.6L223.571 78.1198L227.024 93.9738L227.936 96.5728L228.784 103.59L229.826 104.63V105.15L229.305 105.669L229.826 106.189V108.788L229.044 109.568ZM218.879 42.5134V41.9936H218.358V42.5134H218.879ZM217.706 54.3389L217.836 53.1693L218.358 52.6495L217.836 52.1297L218.618 47.7114L218.879 44.3327L218.358 43.8129L218.879 43.2931L218.097 42.5134L217.836 42.7733L217.315 44.3327L216.272 45.3723L215.881 47.7114L214.383 51.35L213.145 53.6891L213.405 53.949L213.927 53.4292L214.448 53.949L217.706 54.3389ZM220.443 75.5208L219.921 75.001L218.358 61.4861L217.836 60.9663L218.358 60.4465L217.836 59.9267L217.771 57.1978L211.125 56.548L211.059 58.8871L208.453 61.4861L207.932 62.5257L205.325 66.6842L204.283 67.7238V68.7634L203.24 69.803L203.045 70.5827L202.458 72.1421L202.002 73.7015L201.676 76.5604L200.634 77.6V79.1594L201.676 80.199L201.806 80.8488L204.804 82.798L205.586 83.0579L207.41 84.8772L208.453 86.9564L208.714 87.2163L210.278 85.6569H210.799L217.836 78.6396L217.967 77.9899L218.618 77.8599L220.443 75.5208ZM197.766 75.7807L198.548 75.001L199.917 70.0629L200.959 67.4639L201.676 66.1644L204.283 62.5257L205.065 61.2262L207.932 57.3277L207.671 57.0678L207.15 57.5876L189.947 58.1074L189.426 57.5876L188.904 58.1074L187.731 58.2374L187.862 59.147L188.839 61.2262L189.295 62.6557L190.077 62.9156L190.403 63.8253L190.729 65.6446L191.772 66.6842L193.075 69.0233L193.335 69.803L194.117 70.5827L194.769 70.7126L194.899 72.402L195.942 73.7015L197.766 75.7807ZM223.31 73.1817L224.874 71.6223H225.395L226.698 70.3228V69.803L227.48 69.0233H228.002L230.347 66.6842L233.996 62.0059L236.342 59.6668L239.47 57.5876L239.731 57.0678H236.864L236.342 57.5876L235.821 57.0678L235.3 57.5876L226.698 57.8475L223.571 57.1978L222.528 57.3277L221.746 57.5876L221.225 57.0678L220.443 57.8475L220.964 60.9663L221.485 61.4861L220.964 62.0059L222.267 70.0629L222.528 72.402L223.31 73.1817ZM226.438 104.37L226.698 104.11L225.33 97.0926L224.483 94.4936L224.092 91.6347L223.049 90.5951L222.723 86.6965L221.485 80.7188L220.703 79.9391L220.182 80.4589H219.661L217.836 82.2782V82.798L214.969 85.6569L214.318 85.7869L214.187 86.4366L212.884 87.7361L211.19 88.3859L211.059 89.5555L213.145 91.6347L213.275 92.8042L215.23 93.2616L218.097 95.0134L218.879 95.7931L221.485 99.1718L226.438 104.37ZM223.049 73.7015V73.1817H222.528V73.7015H223.049Z" fill="black"/>
<path fill-rule="evenodd" clip-rule="evenodd" d="M173.526 85.3347L164.925 85.1371L164.404 84.6173L163.882 85.1371L160.754 84.6173L160.233 85.1371L159.712 84.6173L159.191 85.1371H154.499L153.978 84.6173L153.456 85.1371L152.935 84.6173L152.414 85.1371L148.243 85.6569L146.94 84.3574L147.331 82.0183L147.266 79.4193L147.461 78.6396L146.94 78.1198L147.461 77.6L148.504 62.5257L149.025 62.0059L148.504 61.4861V58.8871L149.286 58.1074H150.85L151.632 58.8871V59.4069L151.892 59.6668L152.414 59.147L155.281 58.8871L166.228 56.8079L171.962 55.1861L173.005 54.7287L173.787 54.4688L174.308 53.949L174.829 54.4688H175.872L177.175 55.7683L177.566 58.1074V59.147L177.175 62.0059L177.697 62.5257L177.175 63.0455L177.697 63.5654L177.175 64.0852V65.6446L177.697 66.1644L177.175 66.6842V68.7634L177.697 69.2832L177.175 69.803V79.1594L176.654 79.6792L177.175 80.199L176.654 80.7188L176.133 83.8376L174.829 85.1371L173.526 85.3347ZM172.484 82.1483L173.396 81.8884L173.526 81.2386L174.047 80.7188L173.526 80.199L173.135 75.2609L173.852 70.5827L174.047 62.5257L173.526 62.0059L174.047 61.4861L173.852 60.7064L173.526 58.8871L174.047 58.3673L173.787 58.1074L171.962 58.3673L170.398 58.9547L169.616 59.147L169.095 59.6668L168.574 59.147L167.531 60.1866L167.01 59.6668L166.489 60.1866L161.797 60.7064L161.276 61.2262L160.754 60.7064L160.233 61.2262L157.366 61.4861L154.238 62.0735L151.697 61.876L150.72 67.4639L150.98 70.0629L150.589 81.9559L162.318 82.0183L162.84 81.4985L163.361 82.0183L172.484 82.1483Z" fill="black"/>
<path fill-rule="evenodd" clip-rule="evenodd" d="M294.467 39.1347L293.489 39.2646L293.75 36.2757L294.076 34.8463L294.727 34.7163L295.509 33.9366V32.897L296.552 31.8574V31.3376L294.467 29.2584L294.858 26.9193L295.118 26.0097L296.813 25.3599L297.855 24.3203H299.94L301.244 23.0208L301.374 22.371L302.807 22.5686L303.85 23.0208L304.893 23.0884L309.063 21.9812L311.93 21.7213L312.712 22.501V23.5406L311.409 24.8401L306.978 28.2188L306.196 28.4787L305.935 28.7386L306.457 29.2584L306.782 30.5579L307.238 31.5975L307.499 32.3772L308.02 32.897L307.499 33.4168L307.369 34.0666L306.457 34.4564L305.414 34.524L300.462 33.1569L299.94 32.6371L299.419 33.1569L298.767 33.2869L298.637 34.4564L297.594 35.496L296.031 38.0951L295.249 38.8748L294.467 39.1347ZM306.196 25.8797L306.457 25.3599H305.675L305.414 25.8797H306.196ZM305.414 26.3995V25.8797H304.893V26.3995H305.414ZM302.156 28.3488L302.286 27.1792L301.765 26.9193V27.699L301.244 28.2188L301.504 28.4787L302.156 28.3488ZM297.985 28.3488L298.116 27.699L297.855 27.4391L297.073 28.2188L297.334 28.4787L297.985 28.3488ZM301.244 28.9985V28.4787H300.722V28.9985H301.244ZM303.589 31.0777L303.85 30.5579H302.547L302.286 31.0777H303.589Z" fill="black"/>
<path fill-rule="evenodd" clip-rule="evenodd" d="M264.492 35.7559L262.798 35.1062L262.407 34.1965L263.45 32.1173L265.535 29.5183L266.186 28.0889L265.014 27.9589L264.232 27.1792V25.6198L263.71 25.1L264.232 24.5802V24.0604L265.535 22.7609L271.008 19.902L271.79 19.6421L273.094 18.3426L273.745 15.6136L274.657 15.2913L276.482 14.9639L277.264 15.7436L277.394 16.9131L281.825 16.5908L281.434 19.902L280.392 20.9416L280.261 21.5913L278.567 22.2411L277.785 23.0208L278.307 23.5406V27.1792L279.349 28.2188V29.2584L277.525 31.0777L275.7 30.8178L270.226 29.5183L268.923 30.8178V31.3376L264.492 35.7559ZM275.048 22.1111L275.179 21.4614L274.918 21.2015L274.136 21.9812L274.397 22.2411L275.048 22.1111ZM269.445 24.3203V23.8005H268.923V24.3203H269.445ZM268.141 25.8797L268.923 25.1V24.5802L268.663 24.3203L268.141 24.8401H267.62L266.838 25.6198L267.099 25.8797H268.141ZM275.635 27.829L275.7 25.1L275.439 24.8401L274.918 25.3599L272.312 26.9193L272.051 27.4391H272.312L275.635 27.829Z" fill="black"/>
</svg>
